<svg width="14" height="14" viewBox="0 0 14 14" fill="none" xmlns="http://www.w3.org/2000/svg">
<path d="M0.874948 3.54614C1.10693 3.54635 1.32934 3.63867 1.49328 3.80281L5.96862 8.27814C6.10404 8.4136 6.26482 8.52106 6.44178 8.59437C6.61874 8.66768 6.80841 8.70541 6.99995 8.70541C7.19149 8.70541 7.38116 8.66768 7.55812 8.59437C7.73508 8.52106 7.89586 8.4136 8.03128 8.27814L12.5037 3.80864C12.6687 3.64925 12.8898 3.56106 13.1192 3.56305C13.3486 3.56505 13.5681 3.65707 13.7303 3.8193C13.8925 3.98153 13.9845 4.20099 13.9865 4.43042C13.9885 4.65984 13.9003 4.88087 13.7409 5.04589L9.27203 9.51539C8.66988 10.1164 7.85389 10.4539 7.00316 10.4539C6.15242 10.4539 5.33644 10.1164 4.73428 9.51539L0.258949 5.04006C0.136672 4.91786 0.053331 4.76218 0.0194426 4.59267C-0.0144458 4.42316 0.00263654 4.2474 0.0685347 4.08759C0.134433 3.92777 0.246194 3.79106 0.389714 3.69469C0.533233 3.59833 0.70208 3.54664 0.874948 3.54614Z" fill="white"/>
</svg>
