<svg width="137" height="111" viewBox="0 0 137 111" fill="none" xmlns="http://www.w3.org/2000/svg">
<g style="mix-blend-mode:multiply" opacity="0.2">
<path d="M115.263 47.3147L101.861 56.4473C101.763 51.1038 97.4255 46.8289 92.0644 46.8289H88.068C88.994 45.6145 89.5301 44.1086 89.5301 42.4569C89.5301 38.3764 86.2159 35.0731 82.122 35.0731C78.0281 35.0731 74.714 38.3764 74.714 42.4569C74.714 46.5375 75.2501 45.6145 76.1761 46.8289H64.5767C66.9648 44.4 68.4756 41.0482 68.4756 37.3563C68.4756 29.8753 62.3835 23.8031 54.878 23.8031C47.3725 23.8031 41.2803 29.8753 41.2803 37.3563C41.2803 44.8372 42.7912 44.4 45.1793 46.8289H44.2533C38.8435 46.8289 34.4084 51.2009 34.4084 56.6416V75.6841C34.4084 81.0762 38.7947 85.4968 44.2533 85.4968H92.0157C97.4255 85.4968 101.861 81.1248 101.861 75.6841V71.6035L115.263 80.6876V47.3147Z" fill="#2E025A"/>
</g>
<path d="M115.263 43.4285L101.861 52.5611C101.763 47.2175 97.4255 42.9427 92.0644 42.9427H88.068C88.994 41.7282 89.5301 40.2223 89.5301 38.5707C89.5301 34.4902 86.2159 31.1869 82.122 31.1869C78.0281 31.1869 74.714 34.4902 74.714 38.5707C74.714 42.6512 75.2501 41.7282 76.1761 42.9427H64.5767C66.9648 40.5138 68.4756 37.1619 68.4756 33.47C68.4756 25.9891 62.3835 19.9169 54.878 19.9169C47.3725 19.9169 41.2803 25.9891 41.2803 33.47C41.2803 40.951 42.7912 40.5138 45.1793 42.9427H44.2533C38.8435 42.9427 34.4084 47.3147 34.4084 52.7554V71.7978C34.4084 77.19 38.7947 81.6105 44.2533 81.6105H92.0157C97.4255 81.6105 101.861 77.2385 101.861 71.7978V67.7173L115.263 76.8013V43.4285Z" fill="url(#paint0_linear_66_168)"/>
<g style="mix-blend-mode:overlay" opacity="0.6">
<path d="M57.2174 51.7838H45.1306C42.1966 51.7838 39.8182 54.1545 39.8182 57.0788V69.126C39.8182 72.0504 42.1966 74.421 45.1306 74.421H57.2174C60.1513 74.421 62.5297 72.0504 62.5297 69.126V57.0788C62.5297 54.1545 60.1513 51.7838 57.2174 51.7838Z" fill="white"/>
</g>
<path d="M91.3821 55.5729H70.7663C70.2302 55.5729 69.7915 55.1357 69.7915 54.6013C69.7915 54.067 70.2302 53.6298 70.7663 53.6298H91.3821C91.9182 53.6298 92.3568 54.067 92.3568 54.6013C92.3568 55.1357 91.9182 55.5729 91.3821 55.5729Z" fill="white"/>
<path d="M91.3821 64.074H70.7663C70.2302 64.074 69.7915 63.6368 69.7915 63.1024C69.7915 62.5681 70.2302 62.1309 70.7663 62.1309H91.3821C91.9182 62.1309 92.3568 62.5681 92.3568 63.1024C92.3568 63.6368 91.9182 64.074 91.3821 64.074Z" fill="white"/>
<g style="mix-blend-mode:multiply" opacity="0.2">
<path d="M54.5856 38.5222C57.5733 38.5222 59.9954 36.108 59.9954 33.13C59.9954 30.152 57.5733 27.7379 54.5856 27.7379C51.5978 27.7379 49.1758 30.152 49.1758 33.13C49.1758 36.108 51.5978 38.5222 54.5856 38.5222Z" fill="#2E025A"/>
</g>
<g style="mix-blend-mode:multiply" opacity="0.2">
<path d="M84.7051 38.5221C84.7051 37.0162 83.4867 35.8018 81.9758 35.8018C80.465 35.8018 79.2466 37.0162 79.2466 38.5221C79.2466 40.028 80.465 41.2425 81.9758 41.2425C83.4867 41.2425 84.7051 40.028 84.7051 38.5221Z" fill="#2E025A"/>
</g>
<mask id="mask0_66_168" style="mask-type:luminance" maskUnits="userSpaceOnUse" x="21" y="47" width="67" height="45">
<path d="M80.5624 47.9462H28.6087C24.8403 47.9462 21.7855 50.991 21.7855 54.747V84.3794C21.7855 88.1354 24.8403 91.1803 28.6087 91.1803H80.5624C84.3308 91.1803 87.3856 88.1354 87.3856 84.3794V54.747C87.3856 50.991 84.3308 47.9462 80.5624 47.9462Z" fill="white"/>
</mask>
<g mask="url(#mask0_66_168)">
<g style="mix-blend-mode:overlay" opacity="0.6">
<path d="M103.176 33.13H14.1825V110.806H103.176V33.13Z" fill="white"/>
</g>
</g>
<path d="M80.5624 48.4319C84.0715 48.4319 86.8983 51.2494 86.8983 54.747V84.3309C86.8983 87.8284 84.0715 90.646 80.5624 90.646H28.6087C25.0996 90.646 22.2729 87.8284 22.2729 84.3309V54.747C22.2729 51.2494 25.0996 48.4319 28.6087 48.4319H80.5624ZM80.5624 47.9462H28.6087C24.8559 47.9462 21.7855 51.0066 21.7855 54.747V84.3309C21.7855 88.0713 24.8559 91.1317 28.6087 91.1317H80.5624C84.3152 91.1317 87.3856 88.0713 87.3856 84.3309V54.747C87.3856 51.0066 84.3152 47.9462 80.5624 47.9462Z" fill="white"/>
<path d="M60.1903 69.5632L52.3437 63.6853V75.3925L60.1903 69.5632Z" fill="white"/>
<path d="M54.5856 80.5418C48.4934 80.5418 43.571 75.6355 43.571 69.5633C43.571 63.4911 48.4934 58.5847 54.5856 58.5847C60.6777 58.5847 65.6002 63.4911 65.6002 69.5633C65.6002 75.6355 60.6777 80.5418 54.5856 80.5418ZM54.5856 60.4792C49.5656 60.4792 45.5205 64.5598 45.5205 69.5147C45.5205 74.4696 49.6144 78.5501 54.5856 78.5501C59.5568 78.5501 63.6507 74.4696 63.6507 69.5147C63.6507 64.5598 59.5568 60.4792 54.5856 60.4792Z" fill="white"/>
<defs>
<linearGradient id="paint0_linear_66_168" x1="47.275" y1="32.9843" x2="96.0514" y2="80.5072" gradientUnits="userSpaceOnUse">
<stop stop-color="#FF2453"/>
<stop offset="0.2" stop-color="#DB2E53"/>
<stop offset="0.4" stop-color="#C13D59"/>
<stop offset="0.7" stop-color="#844855"/>
<stop offset="0.9" stop-color="#604D52"/>
<stop offset="1" stop-color="#4A4D5A"/>
</linearGradient>
</defs>
</svg>
