<svg width="137" height="111" viewBox="0 0 137 111" fill="none" xmlns="http://www.w3.org/2000/svg">
<g style="mix-blend-mode:multiply" opacity="0.2">
<path d="M79.3674 79.2588C92.4812 66.1879 92.4812 44.9959 79.3674 31.925C66.2537 18.8542 44.9921 18.8542 31.8783 31.925C18.7646 44.9959 18.7646 66.1879 31.8783 79.2588C44.9921 92.3297 66.2537 92.3296 79.3674 79.2588Z" fill="#2E025A"/>
</g>
<path d="M61.0005 82.3718C79.3076 79.4164 91.7447 62.2283 88.7796 43.9811C85.8145 25.7339 68.57 13.3374 50.2629 16.2928C31.9558 19.2482 19.5187 36.4363 22.4838 54.6835C25.4489 72.9307 42.6934 85.3272 61.0005 82.3718Z" fill="url(#paint0_linear_66_79)"/>
<g style="mix-blend-mode:overlay" opacity="0.6">
<path d="M58.7077 29.6844L62.7041 37.7483C63.1915 38.7685 64.1663 39.4486 65.2872 39.5943L74.2548 40.9059C77.0816 41.2945 78.2025 44.7435 76.1556 46.7352L69.6735 53.0503C68.845 53.8276 68.5039 54.9448 68.6988 56.0621L70.2097 64.9518C70.697 67.7208 67.7728 69.8582 65.2385 68.5466L57.2456 64.3689C56.2708 63.8346 55.0524 63.8346 54.0777 64.3689L46.0848 68.5466C43.5505 69.8582 40.6262 67.7208 41.1136 64.9518L42.6245 56.0621C42.8194 54.9448 42.4295 53.8276 41.6497 53.0503L35.1677 46.7352C33.1207 44.7435 34.2417 41.2945 37.0684 40.9059L46.0361 39.5943C47.157 39.4486 48.1317 38.7199 48.6191 37.7483L52.6156 29.6844C53.8827 27.1584 57.4893 27.1584 58.7564 29.6844H58.7077Z" fill="white"/>
</g>
<g style="mix-blend-mode:overlay" opacity="0.6">
<path d="M57.3918 37.5055L59.7312 42.1689C60.0237 42.7519 60.5598 43.1405 61.2421 43.2376L66.4082 43.9663C68.0165 44.2092 68.6989 46.2009 67.5292 47.3667L63.7764 51.0101C63.289 51.4473 63.0941 52.1274 63.1916 52.7589L64.0688 57.9081C64.3612 59.5112 62.6555 60.7742 61.1933 59.9969L56.5633 57.5681C55.9785 57.2766 55.2961 57.2766 54.7113 57.5681L50.0813 59.9969C48.6192 60.7742 46.9134 59.5112 47.2058 57.9081L48.0831 52.7589C48.1805 52.1274 47.9856 51.4473 47.4982 51.0101L43.7455 47.3667C42.5758 46.2009 43.2093 44.2092 44.8664 43.9663L50.0325 43.2376C50.6661 43.1405 51.251 42.7519 51.5434 42.1689L53.8828 37.5055C54.6138 36.0481 56.7095 36.0481 57.4406 37.5055H57.3918Z" fill="white"/>
</g>
<mask id="mask0_66_79" style="mask-type:luminance" maskUnits="userSpaceOnUse" x="55" y="24" width="60" height="62">
<path d="M108.273 24.8752H61.8757C58.5128 24.8752 55.8323 27.5956 55.8323 30.8989V82.9256C55.8323 85.2087 58.3179 86.666 60.3161 85.5002L81.7604 74.5702C83.9536 73.4529 86.5854 73.4529 88.7786 74.5702L109.882 85.4516C111.88 86.6175 114.366 85.1601 114.366 82.877V30.8989C114.366 27.547 111.636 24.8752 108.322 24.8752H108.273Z" fill="white"/>
</mask>
<g mask="url(#mask0_66_79)">
<g style="mix-blend-mode:overlay" opacity="0.6" filter="url(#filter0_f_66_79)">
<path d="M132.983 8.60168H41.5035V111.926H132.983V8.60168Z" fill="white"/>
</g>
</g>
<path d="M108.273 25.361C111.344 25.361 113.829 27.8385 113.829 30.8989V82.877C113.829 84.4315 112.514 85.403 111.295 85.403C110.077 85.403 110.418 85.3059 110.028 85.063L88.9248 74.1816C87.7551 73.5987 86.4879 73.2586 85.172 73.2586C83.8561 73.2586 82.5889 73.5501 81.468 74.133L60.0237 85.063C59.6338 85.3059 59.1951 85.403 58.8052 85.403C57.5868 85.403 56.2709 84.4315 56.2709 82.877V30.8503C56.2709 27.7899 58.7565 25.3124 61.8269 25.3124H108.225M108.273 24.8752H61.8757C58.5128 24.8752 55.8323 27.5956 55.8323 30.8989V82.9256C55.8323 84.6744 57.2457 85.9374 58.854 85.9374C60.4623 85.9374 59.8775 85.7917 60.3161 85.5488L81.7604 74.6188C82.8814 74.0359 84.0511 73.793 85.2695 73.793C86.4879 73.793 87.7063 74.0844 88.7786 74.6674L109.882 85.5488C110.369 85.8402 110.856 85.9374 111.393 85.9374C112.952 85.9374 114.414 84.6744 114.414 82.9256V30.9475C114.414 27.5956 111.685 24.9238 108.371 24.9238L108.273 24.8752Z" fill="white"/>
<path d="M56.1734 76.222C56.0759 76.222 55.9785 76.2219 55.9785 76.0762C55.9297 75.9791 55.9785 75.8333 56.0759 75.7362L84.977 60.4342C85.0258 60.4342 85.1233 60.4342 85.2207 60.4342L114.122 75.7362C114.219 75.7848 114.268 75.9305 114.219 76.0762C114.171 76.1734 114.024 76.2219 113.878 76.1734L85.0745 60.92L56.2709 76.1734H56.1734V76.222Z" fill="white"/>
<defs>
<filter id="filter0_f_66_79" x="17.5035" y="-15.3983" width="139.48" height="151.325" filterUnits="userSpaceOnUse" color-interpolation-filters="sRGB">
<feFlood flood-opacity="0" result="BackgroundImageFix"/>
<feBlend mode="normal" in="SourceGraphic" in2="BackgroundImageFix" result="shape"/>
<feGaussianBlur stdDeviation="12" result="effect1_foregroundBlur_66_79"/>
</filter>
<linearGradient id="paint0_linear_66_79" x1="29.9391" y1="33.9372" x2="86.1157" y2="63.1862" gradientUnits="userSpaceOnUse">
<stop stop-color="#FF2453"/>
<stop offset="0.2" stop-color="#DB2E53"/>
<stop offset="0.4" stop-color="#C13D59"/>
<stop offset="0.7" stop-color="#844855"/>
<stop offset="0.9" stop-color="#604D52"/>
<stop offset="1" stop-color="#4A4D5A"/>
</linearGradient>
</defs>
</svg>
