<svg width="24" height="24" viewBox="0 0 24 24" fill="none" xmlns="http://www.w3.org/2000/svg">
<g clip-path="url(#clip0_70_406)">
<mask id="mask0_70_406" style="mask-type:luminance" maskUnits="userSpaceOnUse" x="0" y="0" width="24" height="24">
<path d="M24 0H0V24H24V0Z" fill="white"/>
</mask>
<g mask="url(#mask0_70_406)">
<path d="M21 0H3C1.3455 0 0 1.3455 0 3V21C0 22.6545 1.3455 24 3 24H12V15.75H9V12H12V9C12 6.5145 14.0145 4.5 16.5 4.5H19.5V8.25H18C17.172 8.25 16.5 8.172 16.5 9V12H20.25L18.75 15.75H16.5V24H21C22.6545 24 24 22.6545 24 21V3C24 1.3455 22.6545 0 21 0Z" fill="#D8DADF"/>
</g>
</g>
<defs>
<clipPath id="clip0_70_406">
<rect width="24" height="24" fill="white"/>
</clipPath>
</defs>
</svg>
