<?xml version="1.0" encoding="UTF-8"?>
<svg id="Capa_1" xmlns="http://www.w3.org/2000/svg" version="1.1" viewBox="0 0 792 315.1">
  <!-- Generator: Adobe Illustrator 29.4.0, SVG Export Plug-In . SVG Version: 2.1.0 Build 152)  -->
  <g>
    <path d="M629.3,96.8c.2,0,.9-1.3,1.3-.9l10.8,68,9-67.2h25.8v121h-16.3s0-.7,0-.9v-78.8l-13.1,80.8s-8.5-.1-10.9,0l-.7-2.3-13.2-79.4v80.9h-1.3s-15.1,0-15.1,0v-121.4c7.4-.7,16.5,1,23.7,0v.2Z"/>
    <path d="M253.5,97.3c.6-.9.8-.9,1.8-.9,7.6,0,15.5,1,23.2.6l10.8,68,9-68h25v122.3c-.6.2-1-.9-1.3-.9h-15.1v-78.3l-13,79.1h-10.6c0,.1-13.4-81.7-13.4-81.7v81.8c-.6.2-1-.9-1.3-.9h-12.9c-.3,0-1,1.5-2.2-.4v-120.7Z"/>
    <path d="M162.7,96.8c.2,0,.5-.6.9-.7l15.9,60.9v-60.3h17.2c.2.6-.9,1-.9,1.3v118.8c0,.2,1.6,1.1-.4,1.9l-16.4-.6-17.7-68.1v68.9c-.6.2-1-.9-1.3-.9h-13.8c-.3,0-.7,1.1-1.3.9v-122.3h17.6l.2.2Z"/>
    <path d="M538.5,165.3c2-2.8,4.1-3.8,5.9-7,4.9-8.5,5.1-40.6,1.9-49.8-1.4-4.1-3.5-7-7.5-8.9-1.4-.7-7.3-2.7-8.5-2.7h-31.4v121.4h18.1v-49.1h5.5l9.2,49.1h16.8c.3,0,.8,1.7,2.1-.4l-12.1-52.5h0ZM529.9,138.6c-.7,9-3.1,13.2-13,12.4v-37c15.3-3,13.7,14.2,13,24.6Z"/>
    <path d="M368.9,96.9h-23.1c0,0-16.5,121.4-16.5,121.4h18.9l1.7-22.4h14.6l1.7,22.4h18.9l-16.4-121.4h.2ZM351.7,177.8l5.2-50.8,1.7,9,4.3,41.7h-11.2Z"/>
    <path d="M406.8,96.8l8.2,38.8,8.2-38.8h18.9l-16.4,59.8,18.1,61.6h-19.8l-9-39.6-9.9,40.5c-.3.4-1.1-.9-1.3-.9h-17.6l17.9-60.7-17.9-60.7h20.7-.1Z"/>
    <path d="M109.7,139h-18.1v-20.2c0-5.9-9.8-8.8-11.1.9-2.3,24.7-2.4,47.8,0,70.6s.8,8.1,2.3,9.1c3.4,2.2,8.9.2,8.9-3.9v-20.2h18.1v25.4c0,1.4-3.2,9.7-4.3,11.2-8.9,12.8-35.8,11.5-41.4-5.1-4.8-14.4-2.7-84-1.7-91.2,2.9-18.9,23.2-28.4,38.1-16.7s9.2,11.6,9.2,16.6v23.7-.2Z"/>
    <path d="M726.2,96.8v18.1h-22.4v32.7h18.9v18.1h-18.9v34.4h22.4v18.1h-39.2c-.3,0-2.2,0-2.2,0v-121.3h41.4Z"/>
    <path d="M246.6,96.8v18.1h-22.4v32.7h18.9v18.1h-18.9v34.4h22.4v18.1h-39.2c-.3,0-.7,1.1-1.3.9v-122.3h40.5Z"/>
    <path d="M597.9,96.8v16.8l-1.3,1.3h-21.1v32.7h18.9v18.1h-18.9v34.4h22.4v18.1h-39.2c-.3,0-.7,1.1-1.3.9v-122.3h40.5,0Z"/>
    <path d="M493.7,96.8c.4.3-.9,1.1-.9,1.3v16.8h-14.6v103.3h-18.1v-103.3h-14.6v-18.1s48.2,0,48.2,0Z"/>
    <rect x="117.5" y="96.8" width="18.1" height="121.4"/>
  </g>
  <path d="M712,238.9H62.5v27.5h663.7v-27.5h-14.2ZM95.6,259.2h-17.3v-13.6h17.3v13.6ZM133.4,246.3v12.8h-17.3v-13.6h17.3v.8ZM171.1,259.2h-17.4v-13.6h17.4v13.6ZM208.9,246.3v12.8h-17.4v-13.6h17.4v.8ZM246.8,259.2h-17.3v-13.6h17.3v13.6ZM284.9,259.2h-17.3v-13.6h17.3v13.6ZM323.1,246.4v12h0v.8h-17.3v-13.6h17.3v.8ZM360.9,259.2h-17.3v-13.6h17.3v13.6ZM399.5,259.2h-17.3v-13.6h17.3v13.6ZM438.1,259.2h-17.3v-13.6h17.3v13.6ZM476.6,259.2h-17.3v-13.6h17.3v13.6ZM514.4,246.3v12.8h-17.3v-13.6h17.3v.8ZM553,259.2h-17.4v-13.6h17.4v13.6ZM590.8,259.2h-17.3v-13.6h17.3v13.6ZM629.4,246.4v12.8h-17.3v-13.6h17.3v.8ZM668.8,246.3v12.8h0c0,0-17.3,0-17.3,0v-13.6h17.3v.7ZM708.9,259.2h-17.3v-13.6h17.3v13.6Z"/>
</svg>