<svg width="167" height="44" viewBox="0 0 167 44" fill="none" xmlns="http://www.w3.org/2000/svg">
<g clip-path="url(#clip0_57_21)">
<path d="M142.502 0.96092C142.552 0.96092 142.727 0.632184 142.828 0.733333L145.536 17.9287L147.793 0.935631H154.262V31.5333H150.175C150.175 31.5333 150.175 31.3563 150.175 31.3057V11.3793L146.89 31.8115C146.89 31.8115 144.758 31.7862 144.157 31.8115L143.981 31.2299L140.671 11.1517V31.6092H140.345H136.559V0.910344C138.414 0.733333 140.696 1.16322 142.502 0.910344V0.96092Z" fill="white"/>
<path d="M48.2695 1.08736C48.42 0.85977 48.4701 0.85977 48.7209 0.85977C50.6266 0.85977 52.6075 1.11264 54.5383 1.01149L57.2464 18.2069L59.5031 1.01149H65.7719V31.9379C65.6215 31.9885 65.5212 31.7103 65.4459 31.7103H61.6596V11.9103L58.3998 31.9126H55.7419C55.7419 31.9379 52.3818 11.2529 52.3818 11.2529V31.9379C52.2314 31.9885 52.1311 31.7103 52.0559 31.7103H48.8212C48.7459 31.7103 48.5704 32.0897 48.2695 31.6092V1.08736Z" fill="white"/>
<path d="M25.5014 0.96092C25.5515 0.96092 25.6267 0.809194 25.727 0.783907L29.714 16.1839V0.935631H34.0269C34.077 1.08735 33.8012 1.1885 33.8012 1.26437V31.3057C33.8012 31.3563 34.2024 31.5839 33.7009 31.7862L29.5886 31.6345L25.1503 14.4138V31.8368C24.9999 31.8874 24.8995 31.6092 24.8243 31.6092H21.364C21.2887 31.6092 21.1884 31.8874 21.038 31.8368V0.910344H25.4512L25.5014 0.96092Z" fill="white"/>
<path d="M119.733 18.2828C120.235 17.5747 120.762 17.3218 121.213 16.5126C122.442 14.3632 122.492 6.24598 121.689 3.91954C121.338 2.88276 120.812 2.14943 119.809 1.66897C119.458 1.49195 117.978 0.986208 117.677 0.986208H109.804V31.6851H114.342V19.269H115.721L118.028 31.6851H122.241C122.316 31.6851 122.442 32.1149 122.768 31.5839L119.733 18.308V18.2828ZM117.577 11.531C117.402 13.8069 116.8 14.869 114.317 14.6667V5.31035C118.154 4.55172 117.753 8.90115 117.577 11.531Z" fill="white"/>
<path d="M77.2062 0.986208H71.4138L67.2764 31.6851H72.0156L72.4419 26.0207H76.1029L76.5291 31.6851H81.2683L77.156 0.986208H77.2062ZM72.8933 21.4437L74.1972 8.5977L74.6234 10.8736L75.7017 21.4184H72.8933V21.4437Z" fill="white"/>
<path d="M86.7096 0.96092L88.7658 10.7724L90.8219 0.96092H95.5611L91.4488 16.0828L95.9874 31.6598H91.0225L88.7658 21.646L86.2833 31.8874C86.2081 31.9885 86.0075 31.6598 85.9574 31.6598H81.5442L86.0326 16.3103L81.5442 0.96092H86.7347H86.7096Z" fill="white"/>
<path d="M12.2117 11.6322H7.67307V6.52414C7.67307 5.03218 5.21571 4.29885 4.88974 6.75172C4.31301 12.9977 4.28794 18.8391 4.88974 24.6046C5.49154 30.3701 5.09034 26.6529 5.46646 26.9057C6.31902 27.4621 7.69814 26.9563 7.69814 25.9195V20.8115H12.2367V27.2345C12.2367 27.5885 11.4343 29.6874 11.1585 30.0667C8.92682 33.3034 2.18163 32.9747 0.777424 28.777C-0.42618 25.1356 0.100398 7.53563 0.351148 5.71494C1.07833 0.935633 6.16857 -1.46667 9.90475 1.49195C13.6409 4.45058 12.2117 4.42529 12.2117 5.68966V11.6828V11.6322Z" fill="white"/>
<path d="M166.799 0.96092V5.53793H161.183V13.8069H165.922V18.3839H161.183V27.0828H166.799V31.6598H156.97C156.895 31.6598 156.418 31.6598 156.418 31.6598V0.986207H166.799V0.96092Z" fill="white"/>
<path d="M46.5393 0.96092V5.53793H40.9225V13.8069H45.6617V18.3839H40.9225V27.0828H46.5393V31.6598H36.7099C36.6347 31.6598 36.5344 31.9379 36.3839 31.8874V0.96092H46.5393Z" fill="white"/>
<path d="M134.628 0.96092V5.2092L134.302 5.53793H129.011V13.8069H133.75V18.3839H129.011V27.0828H134.628V31.6598H124.799C124.723 31.6598 124.623 31.9379 124.473 31.8874V0.96092H134.628Z" fill="white"/>
<path d="M108.5 0.96092C108.6 1.03678 108.274 1.23908 108.274 1.28965V5.53793H104.613V31.6598H100.075V5.53793H96.4137V0.96092H108.5Z" fill="white"/>
<path d="M18.706 0.96092H14.1674V31.6598H18.706V0.96092Z" fill="white"/>
<path d="M163.239 36.8943H0.376129V43.8483H166.799V36.8943H163.239ZM8.67598 42.0276H4.33799V38.5885H8.67598V42.0276ZM18.1544 38.7655V42.0023H13.8164V38.5632H18.1544V38.7655ZM27.6077 42.0276H23.2446V38.5885H27.6077V42.0276ZM37.086 38.7655V42.0023H32.723V38.5632H37.086V38.7655ZM46.5895 42.0276H42.2515V38.5885H46.5895V42.0276ZM56.1431 42.0276H51.8051V38.5885H56.1431V42.0276ZM65.7218 38.7908V41.8253V42.0276H61.3838V38.5885H65.7218V38.7908ZM75.2002 42.0276H70.8622V38.5885H75.2002V42.0276ZM84.8791 42.0276H80.5411V38.5885H84.8791V42.0276ZM94.5581 42.0276H90.2201V38.5885H94.5581V42.0276ZM104.212 42.0276H99.874V38.5885H104.212V42.0276ZM113.69 38.7655V42.0023H109.352V38.5632H113.69V38.7655ZM123.369 42.0276H119.006V38.5885H123.369V42.0276ZM132.848 42.0276H128.51V38.5885H132.848V42.0276ZM142.527 38.7908V42.0276H138.189V38.5885H142.527V38.7908ZM152.406 38.7655V42.0023H148.068V38.5632H152.406V38.7402V38.7655ZM162.461 42.0276H158.123V38.5885H162.461V42.0276Z" fill="#FF2453"/>
</g>
<defs>
<clipPath id="clip0_57_21">
<rect width="167" height="44" fill="white"/>
</clipPath>
</defs>
</svg>
