<svg width="137" height="111" viewBox="0 0 137 111" fill="none" xmlns="http://www.w3.org/2000/svg">
<g style="mix-blend-mode:multiply" opacity="0.2">
<path d="M68.8655 90.1602C84.4773 90.1602 97.1331 77.5458 97.1331 61.9851C97.1331 46.4245 84.4773 33.8101 68.8655 33.8101C53.2538 33.8101 40.598 46.4245 40.598 61.9851C40.598 77.5458 53.2538 90.1602 68.8655 90.1602Z" fill="#2E025A"/>
</g>
<path d="M68.8655 83.4078C84.4773 83.4078 97.1331 70.7934 97.1331 55.2328C97.1331 39.6721 84.4773 27.0577 68.8655 27.0577C53.2538 27.0577 40.598 39.6721 40.598 55.2328C40.598 70.7934 53.2538 83.4078 68.8655 83.4078Z" fill="url(#paint0_linear_67_309)"/>
<g style="mix-blend-mode:overlay" opacity="0.6">
<path d="M68.8655 61.9851C72.607 61.9851 75.64 58.962 75.64 55.2328C75.64 51.5036 72.607 48.4805 68.8655 48.4805C65.1241 48.4805 62.0911 51.5036 62.0911 55.2328C62.0911 58.962 65.1241 61.9851 68.8655 61.9851Z" fill="white"/>
</g>
<mask id="mask0_67_309" style="mask-type:luminance" maskUnits="userSpaceOnUse" x="39" y="18" width="60" height="74">
<path d="M81.4884 49.6463C84.9488 46.3431 87.0932 41.7282 87.0932 36.5789C87.0932 26.5719 78.9541 18.4109 68.8655 18.4109C58.777 18.4109 50.6379 26.5234 50.6379 36.5789C50.6379 46.6345 52.7823 46.3431 56.2426 49.6463C46.1053 54.3584 39.0872 64.6083 39.0872 76.5098C39.0872 88.4113 39.8182 84.0879 41.1829 87.4884C49.2732 90.1601 58.7282 91.7146 68.8168 91.7146C78.9054 91.7146 88.3604 90.1601 96.4507 87.4884C97.8154 84.0879 98.5464 80.396 98.5464 76.5098C98.5464 64.6083 91.5283 54.3584 81.391 49.6463H81.4884Z" fill="white"/>
</mask>
<g mask="url(#mask0_67_309)">
<g style="mix-blend-mode:overlay" opacity="0.6">
<path d="M110.877 9.0354H31.533V102.062H110.877V9.0354Z" fill="white"/>
</g>
</g>
<mask id="mask1_67_309" style="mask-type:luminance" maskUnits="userSpaceOnUse" x="78" y="33" width="48" height="59">
<path d="M112.095 58.4875C114.825 55.8643 116.53 52.221 116.53 48.1405C116.53 40.2223 110.097 33.8101 102.153 33.8101C94.2089 33.8101 87.7756 40.2223 87.7756 48.1405C87.7756 56.0586 89.4814 55.8643 92.2107 58.4875C84.2178 62.228 78.6617 70.3405 78.6617 79.716C78.6617 89.0915 79.2466 85.691 80.3188 88.3628C86.7034 90.5002 94.1601 91.6661 102.153 91.6661C110.146 91.6661 117.603 90.4516 123.987 88.3628C125.059 85.691 125.644 82.7764 125.644 79.6674C125.644 70.2919 120.088 62.1794 112.095 58.4389V58.4875Z" fill="white"/>
</mask>
<g mask="url(#mask1_67_309)">
<g style="mix-blend-mode:overlay" opacity="0.6">
<path d="M135.294 26.4263H72.6183V99.9243H135.294V26.4263Z" fill="white"/>
</g>
</g>
<path d="M102.153 34.1987C109.853 34.1987 116.141 40.4652 116.141 48.1405C116.141 55.8157 114.63 55.5243 111.852 58.196C111.754 58.2932 111.706 58.3904 111.754 58.5361C111.803 58.6818 111.852 58.779 111.949 58.8276C115.848 60.6735 119.211 63.5396 121.55 67.1829C123.987 70.9234 125.254 75.2468 125.254 79.716C125.254 84.1851 124.718 85.3996 123.695 88.0713C117.213 90.2087 109.756 91.326 102.153 91.326C94.55 91.326 87.0933 90.2087 80.6112 88.0713C79.5877 85.3996 79.0516 82.582 79.0516 79.716C79.0516 75.2468 80.3188 70.9234 82.7557 67.1829C85.095 63.5396 88.4579 60.6735 92.3569 58.8276C92.4543 58.779 92.5518 58.6818 92.5518 58.5361C92.5518 58.3904 92.5518 58.2932 92.4543 58.196C89.6763 55.5243 88.1655 51.9781 88.1655 48.1405C88.1655 40.4652 94.4526 34.1987 102.153 34.1987ZM102.153 33.8101C94.2089 33.8101 87.7756 40.2223 87.7756 48.1405C87.7756 56.0586 89.4814 55.8643 92.2107 58.4875C84.2178 62.228 78.6617 70.3405 78.6617 79.716C78.6617 89.0915 79.2466 85.691 80.3188 88.3628C86.7034 90.5002 94.1601 91.6661 102.153 91.6661C110.146 91.6661 117.603 90.4516 123.987 88.3628C125.059 85.691 125.644 82.7764 125.644 79.6674C125.644 70.2919 120.088 62.1794 112.095 58.4389C114.825 55.8157 116.53 52.1724 116.53 48.0919C116.53 40.1737 110.097 33.7615 102.153 33.7615V33.8101Z" fill="white"/>
<mask id="mask2_67_309" style="mask-type:luminance" maskUnits="userSpaceOnUse" x="11" y="34" width="48" height="59">
<path d="M44.8382 59.4105C47.5675 56.7873 49.2733 53.144 49.2733 49.0634C49.2733 41.1453 42.84 34.733 34.8958 34.733C26.9517 34.733 20.5184 41.1453 20.5184 49.0634C20.5184 56.9816 22.2242 56.7873 24.9535 59.4105C16.9606 63.151 11.4045 71.2634 11.4045 80.6389C11.4045 90.0144 11.9894 86.614 13.0616 89.2858C19.4462 91.4232 26.9029 92.5891 34.8958 92.5891C42.8887 92.5891 50.3455 91.3746 56.73 89.2858C57.8023 86.614 58.3871 83.6993 58.3871 80.5904C58.3871 71.2149 52.8311 63.1024 44.8382 59.3619V59.4105Z" fill="white"/>
</mask>
<g mask="url(#mask2_67_309)">
<g style="mix-blend-mode:overlay" opacity="0.6">
<path d="M68.037 27.3007H5.36108V100.799H68.037V27.3007Z" fill="white"/>
</g>
</g>
<path d="M34.8958 35.1216C42.5963 35.1216 48.8834 41.3882 48.8834 49.0634C48.8834 56.7387 47.3725 56.4472 44.5945 59.119C44.497 59.2162 44.4483 59.3133 44.497 59.4591C44.5458 59.6048 44.5945 59.702 44.692 59.7505C48.5909 61.5965 51.9538 64.4626 54.2932 68.1059C56.73 71.8464 57.9972 76.1698 57.9972 80.6389C57.9972 85.1081 57.4611 86.3225 56.4376 88.9943C49.9556 91.1317 42.4988 92.249 34.8958 92.249C27.2928 92.249 19.8361 91.1317 13.354 88.9943C12.3305 86.3225 11.7944 83.505 11.7944 80.6389C11.7944 76.1698 13.0616 71.8464 15.4985 68.1059C17.8378 64.4626 21.2007 61.5965 25.0997 59.7505C25.1971 59.702 25.2946 59.6048 25.2946 59.4591C25.2946 59.3133 25.2946 59.2162 25.1971 59.119C22.4191 56.4472 20.9083 52.9011 20.9083 49.0634C20.9083 41.3882 27.1954 35.1216 34.8958 35.1216ZM34.8958 34.733C26.9517 34.733 20.5184 41.1453 20.5184 49.0634C20.5184 56.9816 22.2242 56.7873 24.9535 59.4105C16.9606 63.151 11.4045 71.2634 11.4045 80.6389C11.4045 90.0144 11.9894 86.614 13.0616 89.2858C19.4462 91.4232 26.9029 92.589 34.8958 92.589C42.8887 92.589 50.3455 91.3746 56.73 89.2858C57.8023 86.614 58.3871 83.6993 58.3871 80.5904C58.3871 71.2149 52.8311 63.1024 44.8382 59.3619C47.5675 56.7387 49.2733 53.0954 49.2733 49.0149C49.2733 41.0967 42.84 34.6844 34.8958 34.6844V34.733Z" fill="white"/>
<path d="M68.8655 18.8967C78.613 18.8967 86.6058 26.8148 86.6058 36.5789C86.6058 46.3431 84.6564 45.9544 81.1473 49.3063C81.0498 49.4034 81.0011 49.5978 81.0011 49.7435C81.0011 49.8892 81.1473 50.035 81.2935 50.0835C86.2647 52.4153 90.4561 56.0586 93.4778 60.6735C96.5482 65.3855 98.1565 70.8748 98.1565 76.5098C98.1565 82.1448 97.4742 83.7479 96.1583 87.0997C87.9217 89.7715 78.5155 91.2288 68.8655 91.2288C59.2156 91.2288 49.8093 89.8201 41.5728 87.0997C40.2569 83.7479 39.5745 80.1531 39.5745 76.5098C39.5745 70.8748 41.1829 65.3855 44.2533 60.6735C47.2263 56.0586 51.4664 52.4153 56.4376 50.0835C56.5838 50.035 56.6813 49.8892 56.73 49.7435C56.7787 49.5978 56.73 49.4034 56.5838 49.3063C53.0747 45.9544 51.1252 41.4367 51.1252 36.5789C51.1252 26.8634 59.0694 18.8967 68.8655 18.8967ZM68.8655 18.4109C58.8257 18.4109 50.6379 26.5234 50.6379 36.5789C50.6379 46.6345 52.7823 46.3431 56.2426 49.6463C46.1053 54.3584 39.0872 64.6083 39.0872 76.5098C39.0872 88.4113 39.8182 84.0879 41.1829 87.4884C49.2732 90.1601 58.7282 91.7146 68.8168 91.7146C78.9054 91.7146 88.3604 90.1601 96.4507 87.4884C97.8154 84.0879 98.5464 80.396 98.5464 76.5098C98.5464 64.6083 91.5283 54.3584 81.391 49.6463C84.8513 46.3431 86.9957 41.7282 86.9957 36.5789C86.9957 26.5719 78.8566 18.4109 68.7681 18.4109H68.8655Z" fill="white"/>
<path d="M68.8656 58.3417C70.5614 58.3417 71.936 56.9716 71.936 55.2813C71.936 53.5911 70.5614 52.2209 68.8656 52.2209C67.1698 52.2209 65.7952 53.5911 65.7952 55.2813C65.7952 56.9716 67.1698 58.3417 68.8656 58.3417Z" fill="white"/>
<path d="M67.7934 57.1759L64.4305 73.0122L68.8656 79.6188L73.0083 73.0122L69.9866 57.1759" fill="white"/>
<defs>
<linearGradient id="paint0_linear_67_309" x1="49.5946" y1="38.9933" x2="92.3116" y2="70.8538" gradientUnits="userSpaceOnUse">
<stop stop-color="#FF2453"/>
<stop offset="0.2" stop-color="#DB2E53"/>
<stop offset="0.4" stop-color="#C13D59"/>
<stop offset="0.7" stop-color="#844855"/>
<stop offset="0.9" stop-color="#604D52"/>
<stop offset="1" stop-color="#4A4D5A"/>
</linearGradient>
</defs>
</svg>
