<svg width="137" height="111" viewBox="0 0 137 111" fill="none" xmlns="http://www.w3.org/2000/svg">
<path d="M97.6204 34.8788H39.4283C36.2791 34.8788 33.7261 37.4234 33.7261 40.5624V70.4376C33.7261 73.5766 36.2791 76.1212 39.4283 76.1212H97.6204C100.77 76.1212 103.323 73.5766 103.323 70.4376V40.5624C103.323 37.4234 100.77 34.8788 97.6204 34.8788Z" fill="url(#paint0_linear_66_130)"/>
<g style="mix-blend-mode:multiply" opacity="0.2">
<path d="M42.9861 37.162H39.672V40.4653H42.9861V37.162Z" fill="#2E025A"/>
</g>
<g style="mix-blend-mode:multiply" opacity="0.2">
<path d="M48.3959 37.162H45.0818V40.4653H48.3959V37.162Z" fill="#2E025A"/>
</g>
<g style="mix-blend-mode:multiply" opacity="0.2">
<path d="M53.8545 37.162H50.5404V40.4653H53.8545V37.162Z" fill="#2E025A"/>
</g>
<g style="mix-blend-mode:multiply" opacity="0.2">
<path d="M59.3131 37.162H55.9989V40.4653H59.3131V37.162Z" fill="#2E025A"/>
</g>
<g style="mix-blend-mode:multiply" opacity="0.2">
<path d="M64.7229 37.162H61.4088V40.4653H64.7229V37.162Z" fill="#2E025A"/>
</g>
<g style="mix-blend-mode:multiply" opacity="0.2">
<path d="M70.1814 37.162H66.8673V40.4653H70.1814V37.162Z" fill="#2E025A"/>
</g>
<g style="mix-blend-mode:multiply" opacity="0.2">
<path d="M75.5912 37.162H72.2771V40.4653H75.5912V37.162Z" fill="#2E025A"/>
</g>
<g style="mix-blend-mode:multiply" opacity="0.2">
<path d="M81.0498 37.162H77.7357V40.4653H81.0498V37.162Z" fill="#2E025A"/>
</g>
<g style="mix-blend-mode:multiply" opacity="0.2">
<path d="M86.5083 37.162H83.1942V40.4653H86.5083V37.162Z" fill="#2E025A"/>
</g>
<g style="mix-blend-mode:multiply" opacity="0.2">
<path d="M91.9182 37.162H88.6041V40.4653H91.9182V37.162Z" fill="#2E025A"/>
</g>
<g style="mix-blend-mode:multiply" opacity="0.2">
<path d="M97.3767 37.162H94.0626V40.4653H97.3767V37.162Z" fill="#2E025A"/>
</g>
<g style="mix-blend-mode:multiply" opacity="0.2">
<path d="M42.9861 70.5348H39.672V73.8381H42.9861V70.5348Z" fill="#2E025A"/>
</g>
<g style="mix-blend-mode:multiply" opacity="0.2">
<path d="M48.3959 70.5348H45.0818V73.8381H48.3959V70.5348Z" fill="#2E025A"/>
</g>
<g style="mix-blend-mode:multiply" opacity="0.2">
<path d="M53.8545 70.5348H50.5404V73.8381H53.8545V70.5348Z" fill="#2E025A"/>
</g>
<g style="mix-blend-mode:multiply" opacity="0.2">
<path d="M59.3131 70.5348H55.9989V73.8381H59.3131V70.5348Z" fill="#2E025A"/>
</g>
<g style="mix-blend-mode:multiply" opacity="0.2">
<path d="M64.7229 70.5348H61.4088V73.8381H64.7229V70.5348Z" fill="#2E025A"/>
</g>
<g style="mix-blend-mode:multiply" opacity="0.2">
<path d="M70.1814 70.5348H66.8673V73.8381H70.1814V70.5348Z" fill="#2E025A"/>
</g>
<g style="mix-blend-mode:multiply" opacity="0.2">
<path d="M75.5912 70.5348H72.2771V73.8381H75.5912V70.5348Z" fill="#2E025A"/>
</g>
<g style="mix-blend-mode:multiply" opacity="0.2">
<path d="M81.0498 70.5348H77.7357V73.8381H81.0498V70.5348Z" fill="#2E025A"/>
</g>
<g style="mix-blend-mode:multiply" opacity="0.2">
<path d="M86.5083 70.5348H83.1942V73.8381H86.5083V70.5348Z" fill="#2E025A"/>
</g>
<g style="mix-blend-mode:multiply" opacity="0.2">
<path d="M91.9182 70.5348H88.6041V73.8381H91.9182V70.5348Z" fill="#2E025A"/>
</g>
<g style="mix-blend-mode:multiply" opacity="0.2">
<path d="M97.3767 70.5348H94.0626V73.8381H97.3767V70.5348Z" fill="#2E025A"/>
</g>
<path d="M75.3476 55.5243L61.6524 47.0232V64.0254L75.3476 55.5243Z" fill="white"/>
<mask id="mask0_66_130" style="mask-type:luminance" maskUnits="userSpaceOnUse" x="38" y="25" width="61" height="61">
<path d="M68.5244 85.3996C85.0782 85.3996 98.4977 72.024 98.4977 55.5243C98.4977 39.0247 85.0782 25.649 68.5244 25.649C51.9706 25.649 38.5511 39.0247 38.5511 55.5243C38.5511 72.024 51.9706 85.3996 68.5244 85.3996Z" fill="white"/>
</mask>
<g mask="url(#mask0_66_130)">
<g style="mix-blend-mode:overlay" opacity="0.6">
<path d="M115.263 18.2653H22.7115V92.9292H115.263V18.2653Z" fill="white"/>
</g>
</g>
<path d="M68.5244 26.1348C84.8026 26.1348 98.0103 39.2994 98.0103 55.5243C98.0103 71.7493 84.8026 84.9138 68.5244 84.9138C52.2462 84.9138 39.0384 71.7493 39.0384 55.5243C39.0384 39.2994 52.2462 26.1348 68.5244 26.1348ZM68.5244 25.649C51.9538 25.649 38.5511 39.0079 38.5511 55.5243C38.5511 72.0407 51.9538 85.3996 68.5244 85.3996C85.095 85.3996 98.4977 72.0407 98.4977 55.5243C98.4977 39.0079 85.095 25.649 68.5244 25.649Z" fill="white"/>
<defs>
<linearGradient id="paint0_linear_66_130" x1="91.8694" y1="34.9759" x2="38.3148" y2="66.6524" gradientUnits="userSpaceOnUse">
<stop stop-color="#FF2453"/>
<stop offset="0.2" stop-color="#DB2E53"/>
<stop offset="0.4" stop-color="#C13D59"/>
<stop offset="0.7" stop-color="#844855"/>
<stop offset="0.9" stop-color="#604D52"/>
<stop offset="1" stop-color="#4A4D5A"/>
</linearGradient>
</defs>
</svg>
