<svg width="25" height="24" viewBox="0 0 25 24" fill="none" xmlns="http://www.w3.org/2000/svg">
<g clip-path="url(#clip0_70_412)">
<mask id="mask0_70_412" style="mask-type:luminance" maskUnits="userSpaceOnUse" x="0" y="0" width="25" height="24">
<path d="M24.5 0H0.5V24H24.5V0Z" fill="white"/>
</mask>
<g mask="url(#mask0_70_412)">
<path d="M10.7054 9.12549L15.3854 12C13.8077 12.9682 12.2764 13.9091 10.7054 14.8732V9.12549Z" fill="#D8DADF"/>
<path d="M22.2732 0H2.72682C2.13623 0 1.56983 0.234611 1.15222 0.65222C0.734611 1.06983 0.5 1.63623 0.5 2.22682V21.7732C0.5 22.3638 0.734611 22.9302 1.15222 23.3478C1.56983 23.7654 2.13623 24 2.72682 24H22.2732C22.8638 24 23.4302 23.7654 23.8478 23.3478C24.2654 22.9302 24.5 22.3638 24.5 21.7732V2.22682C24.5 1.63623 24.2654 1.06983 23.8478 0.65222C23.4302 0.234611 22.8638 0 22.2732 0ZM19.6495 15.6095C19.3495 16.5314 18.3568 17.0918 17.4432 17.22C14.157 17.5691 10.843 17.5691 7.55682 17.22C6.64318 17.0918 5.64773 16.5382 5.35045 15.6095C4.88274 13.2264 4.88274 10.775 5.35045 8.39182C5.65045 7.46864 6.64318 6.90955 7.55682 6.78136C10.843 6.43227 14.157 6.43227 17.4432 6.78136C18.3568 6.90955 19.3523 7.46318 19.6495 8.39182C20.1173 10.775 20.1173 13.2264 19.6495 15.6095Z" fill="#D8DADF"/>
</g>
</g>
<defs>
<clipPath id="clip0_70_412">
<rect width="24" height="24" fill="white" transform="translate(0.5)"/>
</clipPath>
</defs>
</svg>
